<?xml version="1.0" standalone="no"?>
<!DOCTYPE svg PUBLIC "-//W3C//DTD SVG 20010904//EN"
 "http://www.w3.org/TR/2001/REC-SVG-20010904/DTD/svg10.dtd">
<svg version="1.0" xmlns="http://www.w3.org/2000/svg"
 width="388.000000pt" height="388.000000pt" viewBox="0 0 388.000000 388.000000"
 preserveAspectRatio="xMidYMid meet">
<metadata>
Created by potrace 1.14, written by Peter Selinger 2001-2017
</metadata>
<g transform="translate(0.000000,388.000000) scale(0.100000,-0.100000)"
fill="#000000" stroke="none">
<path d="M2592 3848 c-39 -63 -91 -174 -142 -303 -28 -71 -58 -143 -65 -160
-8 -16 -19 -49 -26 -72 -7 -24 -15 -43 -18 -43 -4 0 -30 26 -58 59 -37 41 -72
68 -120 92 -62 31 -77 34 -170 36 -111 2 -176 -11 -251 -52 l-43 -24 -18 42
c-10 23 -35 86 -56 141 -22 54 -45 101 -53 103 -19 8 -62 -17 -62 -36 0 -37
90 -200 136 -245 14 -15 12 -16 -23 -17 -110 -2 -137 -9 -209 -55 -113 -72
-165 -213 -128 -345 31 -110 31 -112 12 -163 -25 -66 -18 -121 21 -160 l30
-29 -97 -32 c-127 -42 -188 -73 -254 -134 -103 -94 -155 -233 -134 -357 7 -39
5 -43 -30 -75 -108 -97 -144 -151 -144 -216 0 -21 7 -47 15 -57 22 -29 19 -43
-20 -88 -68 -80 -71 -156 -13 -278 28 -60 35 -87 36 -135 0 -146 32 -232 255
-686 69 -140 143 -281 164 -314 57 -86 125 -150 196 -185 111 -54 157 -59 512
-55 176 2 334 6 350 9 17 3 50 7 75 10 83 8 184 37 240 67 54 31 150 115 150
132 0 10 85 132 107 155 23 24 127 197 189 317 69 134 141 310 178 438 16 55
37 102 60 131 47 62 61 107 61 201 0 71 -4 85 -28 120 -31 45 -33 68 -12 118
46 111 -16 271 -127 328 l-40 20 7 47 c5 26 7 59 6 75 -6 114 -129 215 -269
222 -23 2 -46 5 -49 8 -3 4 -5 29 -4 56 1 67 -9 89 -63 141 -25 24 -46 47 -46
51 0 4 16 24 35 45 50 55 199 251 278 366 36 54 75 108 86 120 143 166 177
222 161 263 -21 55 -101 157 -132 168 -24 9 -47 -15 -123 -128 -38 -55 -86
-122 -109 -150 -22 -27 -44 -54 -48 -60 -50 -63 -72 -94 -90 -124 -12 -20 -24
-38 -28 -41 -3 -3 -18 -25 -35 -50 -45 -68 -70 -99 -60 -75 4 11 13 45 20 75
28 123 93 280 209 505 40 77 71 147 68 155 -13 40 -176 160 -218 160 -15 0
-29 -11 -42 -32z m102 -108 c25 -26 58 -53 73 -60 16 -8 29 -15 31 -16 7 -4
-99 -204 -108 -204 -13 0 -75 113 -103 190 -22 58 -23 70 -13 105 7 22 18 51
25 64 l13 23 19 -28 c10 -16 39 -49 63 -74z m-124 -193 c0 -14 83 -137 92
-137 17 0 6 -33 -34 -105 l-42 -74 -38 42 c-51 56 -91 139 -91 187 0 24 13 65
33 106 l32 66 24 -39 c13 -21 24 -42 24 -46z m440 -34 c0 -33 43 -105 76 -126
19 -12 34 -27 34 -33 0 -5 -31 -40 -69 -77 -47 -46 -74 -65 -85 -61 -25 10
-56 69 -62 118 -5 40 -1 55 31 113 35 64 50 82 68 83 4 0 7 -8 7 -17z m-921
-121 c82 -39 164 -182 165 -288 0 -56 -3 -68 -34 -111 -57 -79 -91 -112 -129
-124 -20 -6 -104 -44 -187 -84 -223 -107 -211 -105 -301 -59 -191 96 -283 277
-212 418 48 97 139 161 241 170 41 3 67 12 90 30 62 47 133 65 255 64 51 -1
93 -6 112 -16z m440 -165 c38 -41 41 -47 31 -73 -29 -76 -64 -144 -74 -144
-22 0 -87 62 -108 103 -17 34 -20 53 -15 107 3 36 13 83 23 105 9 22 21 51 26
65 10 24 12 21 43 -47 18 -39 52 -91 74 -116z m355 50 c4 -16 24 -68 38 -94 9
-18 6 -29 -21 -70 -49 -76 -87 -117 -100 -109 -28 17 -53 89 -49 137 5 45 44
123 58 114 3 -2 16 12 30 31 20 30 25 33 33 19 5 -9 10 -22 11 -28z m-176
-226 c0 -21 9 -59 21 -86 l21 -47 -31 -39 c-17 -21 -44 -48 -60 -60 -37 -26
-48 -19 -85 56 -25 48 -26 54 -12 74 27 38 133 147 140 144 4 -2 7 -21 6 -42z
m-311 -61 c29 -23 53 -47 53 -54 0 -21 -47 -140 -80 -204 l-29 -57 -1 66 c0
58 -3 69 -29 98 -17 18 -43 36 -59 40 l-30 6 52 72 c28 40 55 73 60 73 5 0 33
-18 63 -40z m148 -122 c9 -33 27 -71 43 -90 13 -15 13 -21 -2 -42 -22 -34 -46
-45 -105 -50 -43 -3 -51 -1 -51 13 0 9 4 21 8 27 5 5 19 34 31 65 37 94 64
121 76 77z m-264 -57 c23 -29 22 -67 -6 -125 -29 -60 -110 -80 -320 -79 -121
0 -203 4 -223 11 -14 5 373 200 431 217 53 16 94 8 118 -24z m-768 -115 c79
-37 75 -45 -24 -47 -56 -2 -121 23 -148 54 -18 23 -22 59 -10 89 l11 28 50
-45 c28 -25 82 -60 121 -79z m1028 -118 c63 -31 92 -72 91 -128 -1 -49 -14
-73 -55 -103 -63 -48 -136 -66 -280 -72 -78 -3 -105 -8 -137 -26 -48 -27 -55
-47 -46 -140 9 -90 2 -99 -76 -99 l-60 0 -63 66 c-35 37 -76 75 -92 85 -55 37
-169 15 -222 -42 -31 -32 -75 -108 -68 -116 9 -9 51 22 93 66 86 93 136 88
249 -25 47 -47 82 -74 97 -75 44 -2 83 3 94 12 7 6 23 12 35 14 40 7 81 61 79
103 -4 74 0 100 15 106 14 5 43 8 185 20 116 10 168 19 250 44 110 33 175 32
246 -3 69 -34 104 -82 104 -145 0 -67 -48 -125 -145 -174 -52 -26 -192 -70
-259 -80 -21 -4 -41 -8 -45 -10 -7 -4 -124 -16 -216 -21 -72 -5 -343 -13 -660
-20 -547 -13 -607 -19 -778 -76 -89 -30 -107 -30 -107 -2 0 19 132 149 159
158 13 4 17 12 13 27 -5 20 -3 21 44 14 27 -5 63 -7 79 -7 17 1 48 2 70 3 29
1 57 -9 98 -32 52 -29 60 -31 87 -20 33 14 64 59 75 108 9 44 1 40 -24 -12
-27 -59 -51 -66 -102 -29 -75 54 -94 60 -168 56 -65 -4 -71 -2 -95 24 -58 62
-59 162 -2 255 38 64 58 85 117 124 100 67 200 92 444 109 44 3 127 8 185 10
311 15 321 16 430 50 103 32 113 34 216 31 75 -1 99 -6 145 -28z m508 -629
c66 -37 111 -122 106 -201 -5 -62 -26 -110 -74 -162 l-46 -49 43 23 c26 15 46
20 52 14 21 -21 31 -132 16 -179 -31 -98 -225 -287 -251 -244 -9 13 -66 11
-91 -4 -12 -6 -43 -25 -70 -42 -54 -33 -83 -34 -124 -5 -15 11 -33 20 -39 20
-6 0 -51 -20 -99 -44 l-88 -44 -64 59 c-36 33 -74 59 -86 59 -11 0 -58 -27
-104 -59 -92 -66 -86 -66 -168 -3 -54 42 -77 38 -158 -27 l-60 -49 -40 30
c-54 42 -133 78 -170 78 -18 0 -49 -12 -75 -30 -24 -16 -48 -30 -52 -30 -5 0
-37 20 -72 45 l-64 46 -38 -21 c-21 -11 -48 -27 -60 -36 -20 -15 -24 -13 -62
21 -22 20 -50 52 -61 70 -26 42 -48 47 -101 23 -50 -22 -75 -18 -119 19 -25
21 -29 28 -17 34 27 15 276 26 1041 44 121 3 244 7 275 10 31 2 92 7 136 10
151 11 475 85 520 119 19 15 19 15 -5 11 -14 -2 -49 -6 -79 -9 -30 -4 -64 -9
-75 -11 -77 -16 -274 -22 -1056 -30 -484 -5 -542 -7 -650 -25 -36 -6 -89 -12
-118 -14 l-52 -2 -20 64 c-25 81 -25 133 -1 180 69 133 118 141 897 147 493 4
632 8 759 20 183 18 328 56 450 118 52 26 163 75 174 77 2 0 20 -9 40 -21z
m-2204 -809 c32 -33 68 -38 99 -15 26 19 33 13 41 -38 15 -89 78 -316 112
-402 50 -126 142 -319 149 -313 3 3 -3 32 -12 64 -10 33 -19 64 -20 69 -1 6
-10 38 -19 72 -9 35 -18 71 -20 80 -3 10 -26 105 -53 210 -27 106 -47 195 -45
197 3 2 21 -5 40 -17 30 -17 40 -19 66 -9 17 6 32 10 34 8 2 -2 6 -41 8 -87 3
-46 7 -95 10 -109 2 -14 7 -41 10 -60 10 -62 44 -183 75 -270 l30 -85 -5 130
c-4 72 -8 144 -10 160 -7 63 -23 335 -20 335 1 0 19 -13 40 -30 45 -35 66 -37
111 -9 19 11 34 17 35 12 0 -4 2 -17 4 -28 2 -11 6 -65 9 -120 3 -55 8 -110
10 -121 2 -12 7 -37 10 -55 11 -70 36 -176 56 -234 l20 -60 -5 195 c-3 107 -8
246 -11 308 -7 132 -7 133 85 71 72 -48 86 -47 149 7 l43 36 -7 -28 c-11 -54
-16 -704 -5 -704 6 0 11 10 12 23 0 12 2 29 4 37 4 16 24 139 50 308 9 53 18
113 21 132 5 30 10 115 13 197 l1 22 38 -25 c44 -30 78 -27 128 11 18 14 36
25 40 25 7 0 -1 -151 -10 -196 -2 -12 -7 -39 -10 -60 -3 -22 -8 -50 -11 -64
-2 -14 -7 -43 -10 -65 -17 -122 -52 -282 -75 -349 -20 -58 -21 -86 -2 -49 5
10 41 106 80 213 79 217 123 367 142 480 17 102 22 109 50 70 33 -46 64 -55
105 -30 46 28 56 26 51 -14 -11 -84 -132 -503 -180 -622 -20 -48 -36 -95 -35
-103 0 -9 8 4 18 29 11 25 44 95 76 155 138 269 234 508 238 599 l2 44 33 -29
c43 -38 69 -37 131 6 28 19 53 35 56 35 28 0 -70 -245 -227 -563 -86 -173
-101 -210 -85 -200 26 16 117 147 186 267 73 128 104 199 157 355 42 123 54
144 91 149 16 2 38 10 51 18 19 13 22 13 22 -1 0 -13 -37 -120 -59 -170 -5
-11 -30 -74 -56 -140 -47 -118 -119 -272 -211 -450 -25 -49 -50 -97 -54 -105
-11 -23 -79 -67 -147 -94 -63 -26 -83 -31 -163 -42 -60 -9 -768 -9 -849 0 -79
8 -227 57 -280 92 -43 28 -60 63 -106 219 -39 131 -89 260 -166 431 -63 139
-119 287 -119 313 0 19 15 12 45 -19z"/>
</g>
</svg>
