<?xml version="1.0" standalone="no"?>
<!DOCTYPE svg PUBLIC "-//W3C//DTD SVG 20010904//EN"
 "http://www.w3.org/TR/2001/REC-SVG-20010904/DTD/svg10.dtd">
<svg version="1.0" xmlns="http://www.w3.org/2000/svg"
 width="672.000000pt" height="672.000000pt" viewBox="0 0 672.000000 672.000000"
 preserveAspectRatio="xMidYMid meet">
<metadata>
Created by potrace 1.14, written by Peter Selinger 2001-2017
</metadata>
<g transform="translate(0.000000,672.000000) scale(0.100000,-0.100000)"
fill="#000000" stroke="none">
<path d="M2594 6704 c-52 -18 -195 -155 -252 -240 -116 -174 -157 -320 -126
-454 7 -31 24 -91 39 -135 36 -111 36 -124 2 -207 -55 -135 -37 -247 51 -333
23 -22 42 -43 42 -46 0 -4 -10 -9 -22 -12 -31 -7 -199 -56 -218 -64 -8 -3 -19
-7 -25 -9 -119 -31 -319 -149 -416 -246 -53 -53 -125 -153 -152 -210 -75 -158
-103 -332 -74 -453 18 -76 10 -99 -50 -150 -184 -156 -286 -309 -279 -420 2
-22 17 -73 35 -113 18 -40 30 -81 26 -91 -3 -10 -20 -33 -38 -52 -45 -47 -81
-97 -97 -139 -20 -48 -21 -55 -27 -135 -6 -83 14 -170 59 -260 65 -131 70
-150 73 -300 2 -114 7 -158 28 -235 40 -146 85 -278 133 -386 7 -16 29 -66 47
-110 33 -75 59 -131 207 -439 34 -71 83 -173 107 -225 206 -434 296 -585 432
-718 64 -63 120 -102 203 -144 90 -45 176 -74 247 -84 19 -2 37 -6 40 -8 3 -2
42 -7 86 -11 44 -4 96 -9 115 -11 47 -5 424 -5 586 1 304 10 638 34 729 51 11
3 36 7 55 10 74 12 198 47 264 75 146 62 318 203 356 293 11 27 58 99 103 160
295 395 513 805 684 1286 81 226 105 305 118 390 8 54 23 83 70 134 104 114
166 324 142 486 -10 69 -44 152 -78 188 -9 11 -24 32 -32 48 -15 28 -14 34 13
94 16 36 34 89 41 119 11 52 8 169 -6 235 -13 61 -73 173 -124 228 -50 54
-128 108 -157 108 -8 0 -14 5 -14 11 0 5 -4 8 -9 5 -5 -3 -14 1 -21 9 -11 14
-8 70 7 125 11 37 9 127 -2 171 -31 118 -102 215 -201 274 -61 37 -185 79
-264 89 -69 9 -114 17 -127 21 -9 3 -13 34 -13 107 -1 142 -8 156 -173 332
-27 29 -27 30 -9 50 10 12 36 41 57 67 22 25 53 61 70 80 16 18 67 84 112 144
46 61 86 115 91 120 47 60 489 707 567 830 29 46 33 55 15 40 -23 -20 -101
-100 -177 -182 -22 -24 -44 -43 -50 -43 -17 0 -83 79 -100 118 -15 37 -26 91
-25 127 2 35 -27 55 -79 55 -62 0 -88 -22 -163 -141 -81 -127 -324 -478 -346
-499 -3 -3 -17 -23 -32 -45 -36 -52 -77 -99 -82 -94 -3 2 25 85 61 184 163
450 205 595 174 595 -27 0 -62 -52 -122 -185 -12 -27 -24 -52 -26 -54 -1 -2
-12 8 -24 23 -46 58 -163 177 -194 196 -39 24 -51 25 -59 5 -14 -39 55 -150
168 -269 36 -38 64 -71 63 -75 -12 -27 -27 -63 -43 -101 -9 -25 -31 -74 -47
-110 -16 -36 -33 -75 -38 -88 -14 -35 -36 -37 -80 -6 -164 113 -224 287 -164
474 10 30 22 60 27 66 13 17 35 98 30 112 -9 28 -46 -3 -57 -48 0 -3 -4 -22
-9 -43 -11 -57 -27 -86 -42 -80 -7 3 -31 33 -53 66 -52 80 -61 91 -88 105 -22
12 -213 17 -213 6 0 -3 20 -26 45 -51 69 -69 122 -170 141 -268 13 -69 11
-208 -4 -260 -44 -158 -167 -317 -267 -343 -28 -7 -184 -80 -347 -162 -163
-82 -327 -160 -365 -173 -60 -22 -73 -23 -108 -13 -112 34 -315 167 -388 255
-71 85 -77 94 -111 165 -110 231 -74 420 113 606 90 89 176 136 266 146 68 7
126 31 176 74 l34 29 -200 -1 c-147 0 -211 -4 -241 -14z m2635 -123 c7 -24 14
-51 16 -60 7 -30 53 -140 68 -162 24 -33 -3 -83 -140 -265 l-68 -91 -35 39
c-64 71 -75 102 -75 208 0 89 2 99 33 152 47 81 173 242 181 231 4 -4 13 -28
20 -52z m-323 -438 c2 -37 5 -75 7 -83 12 -53 30 -101 52 -139 25 -42 25 -45
8 -70 -9 -14 -21 -31 -27 -38 -6 -7 -33 -39 -61 -71 -59 -70 -108 -100 -134
-80 -25 20 -39 39 -62 88 -12 25 -32 67 -45 94 l-23 48 107 132 c127 156 164
198 170 192 2 -3 6 -35 8 -73z m-601 -133 c11 -12 41 -38 68 -57 38 -28 48
-41 44 -57 -3 -12 -8 -31 -10 -42 -6 -23 -36 -99 -70 -178 -12 -27 -22 -52
-23 -55 -1 -16 -93 -199 -102 -205 -12 -7 -10 7 7 70 28 100 7 187 -61 251
-34 33 -95 63 -114 56 -6 -2 -16 2 -22 10 -9 10 -6 19 11 38 12 13 56 74 96
136 l74 112 41 -28 c23 -16 50 -39 61 -51z m286 -197 c6 -65 34 -143 75 -212
l36 -61 -22 -33 c-12 -18 -41 -46 -64 -62 -38 -28 -48 -30 -143 -32 -66 -2
-103 1 -103 8 0 10 55 147 92 229 37 83 72 145 87 157 18 14 41 17 42 6z
m-550 -82 c25 -2 76 -55 88 -94 9 -27 10 -112 1 -112 -1 0 -3 -10 -6 -23 -6
-32 -52 -113 -78 -136 -47 -42 -134 -68 -276 -83 -125 -13 -542 -6 -665 12
-11 1 -28 3 -37 4 -26 2 -22 20 5 30 37 14 282 136 509 254 272 141 323 158
459 148z m-1630 -112 c30 -29 78 -70 106 -91 56 -43 236 -138 260 -138 14 0
15 -21 1 -22 -4 0 -28 -6 -54 -14 -68 -20 -196 -12 -264 17 -30 13 -56 27 -58
31 -2 4 -9 8 -14 8 -18 0 -77 72 -83 100 -5 24 -1 72 9 115 2 11 5 26 5 33 2
26 41 10 92 -39z m2034 -329 c64 -14 161 -62 202 -98 53 -47 82 -117 79 -187
-3 -75 -27 -125 -81 -173 -37 -33 -137 -90 -169 -97 -6 -1 -18 -5 -26 -8 -23
-9 -160 -37 -205 -42 -22 -3 -71 -4 -110 -4 -168 2 -191 0 -248 -21 -31 -12
-71 -33 -89 -48 -40 -33 -68 -98 -62 -140 7 -56 13 -86 23 -127 32 -126 5
-162 -126 -169 -108 -6 -137 10 -258 140 -147 157 -184 180 -298 188 -33 3
-126 -23 -184 -50 -54 -26 -133 -97 -133 -120 0 -8 -4 -14 -10 -14 -5 0 -10
-5 -10 -10 0 -12 -33 -60 -67 -98 -28 -30 -21 -45 13 -31 39 14 58 30 148 117
44 43 101 91 126 107 107 67 195 21 390 -204 74 -85 106 -102 195 -102 50 -1
75 5 112 25 26 14 60 28 76 31 37 7 105 70 123 114 12 27 14 55 9 116 -16 185
-22 181 310 210 126 11 171 16 195 20 23 4 90 14 135 21 11 1 20 3 20 4 0 1 9
3 20 5 57 8 100 18 119 25 12 4 23 7 26 7 11 -1 79 24 114 42 31 16 56 19 149
17 101 -2 120 -6 189 -35 90 -38 169 -109 200 -180 30 -68 31 -169 3 -229 -37
-79 -150 -184 -252 -236 -79 -39 -298 -113 -391 -131 -13 -2 -31 -6 -40 -9 -9
-3 -28 -7 -42 -10 -14 -3 -48 -9 -75 -15 -45 -9 -98 -16 -190 -26 -207 -24
-552 -37 -1331 -50 -518 -9 -755 -16 -994 -30 -189 -10 -358 -39 -490 -81 -47
-15 -87 -28 -90 -29 -3 0 -9 -3 -15 -7 -5 -3 -48 -18 -94 -32 -88 -28 -100
-26 -101 16 0 51 228 276 338 332 43 22 98 29 123 15 31 -16 58 -20 134 -18
229 6 216 7 265 -32 25 -20 64 -46 87 -59 104 -57 208 23 243 187 12 57 48
103 80 103 11 0 20 4 20 9 0 9 -11 9 -73 -5 -30 -6 -63 -46 -94 -114 -47 -103
-107 -115 -188 -40 -59 55 -138 100 -190 107 -27 4 -52 7 -55 6 -54 -10 -167
-12 -190 -3 -43 18 -112 113 -127 173 -14 61 -10 143 11 232 42 181 227 373
444 462 105 43 210 68 377 88 28 4 61 8 75 10 14 2 52 6 85 10 32 4 63 9 67
11 4 3 8 0 8 -6 0 -6 4 -9 8 -6 15 9 131 18 392 31 243 13 290 15 355 20 134
9 189 14 214 19 14 3 37 8 51 10 51 10 69 15 193 55 214 68 379 81 552 41z
m1086 -1275 c19 -13 55 -45 80 -72 129 -145 147 -330 50 -521 -11 -22 -52 -73
-91 -114 -38 -40 -70 -76 -70 -81 0 -8 33 8 111 54 29 16 58 28 66 25 29 -12
47 -96 48 -231 0 -116 -17 -167 -93 -275 -89 -126 -293 -340 -325 -340 -10 0
-39 12 -63 26 -67 40 -111 31 -219 -42 -128 -87 -144 -96 -178 -104 -41 -8
-82 5 -130 42 -39 31 -88 43 -116 28 -9 -4 -34 -16 -56 -26 -22 -9 -89 -41
-149 -71 l-109 -53 -87 93 c-48 50 -107 106 -132 124 -41 29 -45 30 -75 18
-39 -17 -126 -75 -213 -144 -36 -28 -74 -58 -84 -66 -17 -13 -26 -10 -88 23
-38 20 -90 55 -116 78 -34 29 -56 40 -77 39 -40 -1 -131 -46 -175 -87 -60 -55
-123 -108 -130 -108 -3 0 -15 8 -26 18 -33 30 -158 110 -223 142 -120 60 -195
51 -314 -34 -73 -52 -76 -53 -99 -38 -13 9 -25 18 -28 21 -8 9 -173 118 -197
130 -28 14 -40 9 -150 -61 l-91 -59 -42 38 c-86 77 -111 105 -141 159 -17 30
-41 61 -52 69 -35 24 -85 18 -159 -20 -69 -36 -105 -39 -134 -11 -6 6 -22 18
-34 26 -12 8 -28 20 -34 25 -6 6 -26 21 -45 35 l-34 23 43 13 c57 17 121 21
655 39 142 5 413 11 850 20 464 10 761 19 940 31 33 2 94 5 135 8 78 4 187 14
230 22 14 2 44 7 66 10 43 5 54 7 139 24 28 5 62 12 78 15 95 18 157 33 327
82 68 19 159 49 202 65 80 30 96 54 30 43 -21 -3 -55 -8 -77 -10 -22 -2 -54
-6 -70 -9 -17 -3 -70 -12 -120 -20 -196 -34 -407 -40 -1890 -52 -1004 -8
-1146 -13 -1350 -47 -16 -3 -50 -9 -75 -12 -25 -4 -54 -9 -65 -11 -11 -3 -45
-7 -76 -10 l-56 -7 -23 74 c-71 231 -74 287 -17 401 20 40 50 90 67 110 35 42
152 104 216 114 21 3 42 8 45 10 3 1 30 6 60 9 30 3 65 8 79 10 28 5 183 15
310 21 82 3 402 8 1315 19 242 3 485 8 540 10 160 6 336 15 385 19 25 3 77 7
115 11 39 3 81 8 95 10 14 2 48 7 75 10 98 12 297 57 393 89 108 36 117 40
320 137 79 38 146 69 149 69 3 0 19 6 36 14 65 29 88 28 148 -9z m-4121 -1533
c29 -37 93 -80 115 -77 31 3 71 19 107 41 22 14 42 24 44 22 2 -3 6 -20 8 -39
3 -19 7 -43 9 -54 3 -11 8 -38 12 -60 5 -22 9 -42 10 -45 1 -3 5 -21 9 -40 4
-19 21 -89 38 -155 16 -66 32 -127 33 -135 27 -118 112 -361 180 -515 7 -16
31 -70 53 -120 67 -152 141 -298 160 -317 12 -12 10 -2 -20 107 -10 39 -21 78
-23 88 -2 10 -7 27 -10 37 -3 10 -8 28 -10 39 -10 45 -14 58 -29 116 -9 33
-19 71 -22 85 -3 14 -9 41 -14 60 -5 19 -9 37 -9 40 0 3 -4 17 -10 33 -6 15
-13 38 -15 50 -2 12 -25 105 -51 207 -26 102 -48 192 -50 200 -2 8 -16 65 -30
125 -37 149 -38 155 -22 155 7 0 17 -4 23 -10 22 -22 108 -58 128 -54 11 3 26
6 32 7 6 2 23 11 39 21 18 12 31 14 37 8 5 -5 12 -65 14 -133 2 -68 7 -140 10
-159 3 -19 7 -53 10 -75 26 -202 112 -550 180 -727 7 -21 11 -38 8 -38 -4 0
-1 -6 5 -13 6 -8 8 -17 4 -20 -3 -4 -2 -7 4 -7 7 0 9 15 7 38 -2 20 -6 89 -9
152 -3 63 -7 144 -10 180 -2 36 -7 117 -10 180 -3 63 -8 142 -10 175 -2 33 -6
101 -9 150 -3 50 -8 108 -10 130 -12 106 -19 177 -17 188 1 8 3 7 61 -44 101
-87 160 -97 244 -38 51 36 65 32 67 -21 0 -14 2 -41 4 -60 1 -19 6 -90 10
-158 3 -68 8 -131 10 -140 1 -9 6 -44 9 -77 4 -33 9 -67 11 -75 2 -8 6 -33 10
-55 14 -100 34 -203 61 -317 2 -10 6 -27 8 -38 12 -54 60 -216 66 -223 12 -14
3 420 -15 683 -19 276 -24 468 -15 495 5 14 17 9 75 -31 39 -26 96 -65 128
-87 32 -22 69 -39 82 -39 27 -1 89 40 162 106 28 25 54 46 57 46 5 0 0 -63
-10 -108 -21 -98 -24 -1356 -3 -1335 4 4 10 22 12 38 3 17 22 127 42 245 20
118 38 229 40 245 11 92 17 129 20 134 1 3 6 35 10 71 4 36 9 74 11 85 2 11 7
38 10 60 2 22 6 51 9 65 21 139 29 219 41 395 3 50 8 92 11 95 2 3 14 -6 26
-20 35 -40 91 -70 131 -70 45 0 96 25 161 79 27 23 53 41 58 41 5 0 6 -21 2
-47 -3 -27 -8 -73 -11 -103 -2 -30 -6 -74 -9 -97 -13 -106 -15 -131 -19 -173
-5 -51 -15 -132 -22 -170 -2 -14 -6 -50 -9 -80 -3 -30 -8 -66 -10 -80 -5 -25
-9 -53 -20 -125 -11 -79 -37 -221 -51 -290 -9 -38 -18 -81 -21 -95 -9 -46 -11
-55 -13 -55 -1 0 -4 -9 -6 -20 -8 -33 -12 -50 -14 -52 -2 -2 -3 -6 -5 -10 -1
-5 -5 -15 -8 -23 -14 -35 -35 -132 -26 -123 11 11 29 58 100 258 28 77 57 158
65 180 8 22 17 47 19 55 2 8 20 60 40 115 20 55 38 105 39 110 2 6 6 17 9 25
6 15 55 181 62 210 2 8 11 42 20 75 15 59 60 260 70 313 2 15 7 45 11 67 3 22
7 42 9 45 2 3 6 26 10 50 4 25 8 46 9 47 1 1 23 -26 49 -60 79 -105 127 -118
214 -57 65 45 78 44 79 -10 1 -24 -5 -67 -12 -95 -8 -27 -16 -61 -19 -75 -4
-23 -44 -170 -96 -355 -11 -38 -21 -77 -23 -85 -25 -102 -152 -516 -166 -542
-6 -10 -10 -22 -10 -27 0 -5 -12 -35 -27 -67 -14 -33 -28 -63 -29 -69 -1 -5
-11 -33 -22 -61 -11 -29 -16 -57 -12 -64 6 -9 9 -9 15 0 18 30 75 142 75 149
0 4 21 47 48 96 26 50 48 93 49 98 1 4 35 76 76 160 41 83 86 177 100 207 72
156 97 212 97 216 0 2 9 23 19 47 51 114 124 324 138 396 2 14 7 29 10 34 10
16 12 128 3 152 -14 36 1 37 40 4 59 -50 108 -79 136 -79 24 0 92 26 104 40 3
3 36 27 74 54 50 35 67 43 63 30 -3 -11 -8 -35 -11 -54 -5 -35 -83 -262 -115
-335 -5 -11 -15 -36 -22 -55 -7 -19 -25 -63 -41 -98 -15 -34 -28 -65 -28 -67
0 -2 -11 -28 -24 -57 -13 -29 -33 -73 -44 -98 -11 -25 -33 -72 -48 -105 -15
-33 -28 -62 -29 -65 -1 -3 -21 -45 -44 -95 -86 -180 -154 -331 -177 -395 l-24
-65 44 47 c111 120 369 552 456 763 56 138 101 260 165 445 75 218 84 234 145
245 19 4 40 8 45 9 16 3 75 40 75 46 0 4 7 7 15 7 18 0 18 -1 3 -52 -6 -22
-12 -42 -12 -45 -1 -3 -7 -18 -13 -35 -7 -16 -31 -84 -53 -150 -46 -132 -177
-466 -220 -560 -15 -33 -37 -80 -48 -105 -46 -101 -138 -287 -155 -310 -9 -13
-17 -32 -17 -41 0 -10 -3 -19 -8 -21 -9 -4 -129 -246 -147 -298 -8 -22 -24
-50 -37 -63 -25 -25 -131 -97 -144 -97 -4 0 -15 -6 -23 -13 -21 -18 -153 -76
-214 -94 -113 -34 -221 -38 -967 -37 -603 0 -773 4 -840 19 -14 3 -38 8 -55
10 -57 10 -229 67 -316 104 -161 70 -204 125 -255 326 -2 8 -44 152 -68 230
-1 6 -8 30 -15 55 -19 67 -119 349 -142 397 -10 24 -19 47 -19 53 0 6 -4 18
-10 28 -12 21 -119 266 -166 380 -91 221 -107 263 -128 342 -13 47 -21 91 -19
98 8 22 32 13 63 -26z"/>
</g>
</svg>
