<svg width="46" height="45" viewBox="0 0 46 45"  xmlns="http://www.w3.org/2000/svg">
<path fill-rule="evenodd" clip-rule="evenodd" d="M8.88 43.2513C18.27 44.2531 27.74 44.2531 37.13 43.2513C38.9532 43.0562 40.6544 42.2421 41.95 40.9446C43.2457 39.6472 44.0574 37.9448 44.25 36.1213C45.2518 26.7313 45.2518 17.2614 44.25 7.87135C44.0549 6.04816 43.2407 4.34695 41.9433 3.05131C40.6458 1.75567 38.9435 0.943907 37.12 0.751348C27.73 -0.250449 18.26 -0.250449 8.87 0.751348C7.04682 0.946466 5.3456 1.76062 4.04997 3.05808C2.75433 4.35553 1.94256 6.05789 1.75 7.88135C0.748208 17.2714 0.748208 26.7413 1.75 36.1313C1.94512 37.9545 2.75928 39.6558 4.05673 40.9514C5.35419 42.247 7.05655 43.0588 8.88 43.2513ZM29.5275 23.2288L29.97 19.3963C29.9831 19.2956 29.9747 19.1932 29.9453 19.0959C29.916 18.9986 29.8664 18.9087 29.7998 18.8319C29.7332 18.7552 29.6511 18.6934 29.559 18.6506C29.4668 18.6079 29.3666 18.5851 29.265 18.5838H24.7975V15.3813C24.7975 13.9363 25.1925 12.9363 27.225 12.9363H29.105C29.1998 12.9354 29.2934 12.9157 29.3806 12.8784C29.4677 12.8412 29.5466 12.7871 29.6128 12.7193C29.679 12.6515 29.7312 12.5712 29.7663 12.4832C29.8014 12.3952 29.8188 12.3011 29.8175 12.2063V8.98135C29.8188 8.88659 29.8014 8.7925 29.7663 8.70447C29.7312 8.61645 29.679 8.53623 29.6128 8.46841C29.5466 8.40059 29.4677 8.3465 29.3806 8.30925C29.2934 8.272 29.1998 8.25233 29.105 8.25135H26.04C22.3 8.25135 19.75 10.5888 19.75 14.8838V18.5838H16.735C16.6405 18.5852 16.5471 18.6051 16.4602 18.6425C16.3734 18.6799 16.2947 18.734 16.2288 18.8018C16.1629 18.8696 16.1109 18.9497 16.076 19.0375C16.041 19.1254 16.0237 19.2193 16.025 19.3138L16.04 23.1463C16.039 23.2406 16.0566 23.3341 16.0917 23.4215C16.1269 23.5089 16.1789 23.5886 16.2448 23.6559C16.3108 23.7232 16.3893 23.7769 16.476 23.8139C16.5627 23.8508 16.6558 23.8704 16.75 23.8713H19.75V35.2313C19.7473 35.2987 19.7582 35.3659 19.7822 35.4288C19.8061 35.4918 19.8425 35.5493 19.8892 35.5979C19.9359 35.6465 19.9919 35.6851 20.0539 35.7115C20.1159 35.7378 20.1826 35.7514 20.25 35.7513H24.3025C24.4371 35.7481 24.565 35.6919 24.6586 35.5951C24.7522 35.4983 24.8039 35.3685 24.8025 35.2338L24.8225 23.8713H28.8225C28.9983 23.8692 29.1673 23.8027 29.2972 23.6842C29.4272 23.5658 29.5091 23.4037 29.5275 23.2288Z" />
</svg>
