<svg width="44" height="44" viewBox="0 0 44 44"  xmlns="http://www.w3.org/2000/svg">
<g clip-path="url(#clip0_267_11)">
<path d="M22 16.0417C20.4198 16.0417 18.9042 16.6694 17.7868 17.7868C16.6694 18.9042 16.0417 20.4198 16.0417 22C16.0417 23.5803 16.6694 25.0958 17.7868 26.2132C18.9042 27.3306 20.4198 27.9583 22 27.9583C23.5803 27.9583 25.0958 27.3306 26.2132 26.2132C27.3306 25.0958 27.9584 23.5803 27.9584 22C27.9584 20.4198 27.3306 18.9042 26.2132 17.7868C25.0958 16.6694 23.5803 16.0417 22 16.0417Z" />
<path fill-rule="evenodd" clip-rule="evenodd" d="M9.48289 0.690462C17.8022 -0.230154 26.1979 -0.230154 34.5172 0.690462C39.0622 1.19701 42.7264 4.76909 43.2601 9.32319C44.2466 17.7448 44.2466 26.2526 43.2601 34.6742C42.7264 39.2283 39.0622 42.8004 34.5196 43.3093C26.1995 44.2302 17.803 44.2302 9.48289 43.3093C4.93794 42.8004 1.27374 39.2283 0.74003 34.6766C-0.246677 26.2542 -0.246677 17.7456 0.74003 9.32319C1.27374 4.76909 4.93794 1.19701 9.48289 0.690462ZM33.9667 7.66259C33.332 7.66259 32.7232 7.91433 32.2744 8.36242C31.8256 8.81051 31.5734 9.41825 31.5734 10.0519C31.5734 10.6856 31.8256 11.2934 32.2744 11.7415C32.7232 12.1896 33.332 12.4413 33.9667 12.4413C34.6015 12.4413 35.2103 12.1896 35.6591 11.7415C36.1079 11.2934 36.3601 10.6856 36.3601 10.0519C36.3601 9.41825 36.1079 8.81051 35.6591 8.36242C35.2103 7.91433 34.6015 7.66259 33.9667 7.66259ZM10.6317 21.9987C10.6317 18.9887 11.8294 16.1019 13.9614 13.9735C16.0934 11.845 18.985 10.6493 22.0001 10.6493C25.0151 10.6493 27.9067 11.845 30.0387 13.9735C32.1707 16.1019 33.3684 18.9887 33.3684 21.9987C33.3684 25.0088 32.1707 27.8955 30.0387 30.024C27.9067 32.1524 25.0151 33.3481 22.0001 33.3481C18.985 33.3481 16.0934 32.1524 13.9614 30.024C11.8294 27.8955 10.6317 25.0088 10.6317 21.9987Z" />
</g>
<defs>
<clipPath id="clip0_267_11">
<rect width="44" height="44" />
</clipPath>
</defs>
</svg>
