<svg width="10" height="13" viewBox="0 0 10 13" fill="none" xmlns="http://www.w3.org/2000/svg">
<path d="M3.19643 0.214634C3.08911 0.298103 2.92217 0.506774 2.82678 0.679674C2.62407 1.02547 2.59426 1.41897 2.73735 1.76477C2.81486 1.94959 2.81486 1.99133 2.72543 2.17019C2.61811 2.40867 2.65388 2.62927 2.83274 2.79621L2.96391 2.91545L2.79101 2.95122C2.11133 3.10027 1.5986 3.43415 1.30646 3.89919C1.14548 4.16152 1.12759 4.24499 1.12759 4.66233C1.12759 4.9187 1.11567 5.12737 1.09182 5.12737C1.06797 5.12737 0.94277 5.24065 0.805643 5.37182C0.50754 5.67588 0.430033 5.91436 0.543312 6.19458C0.620819 6.38537 0.614857 6.40921 0.471767 6.55827C0.239247 6.80271 0.209437 7.19024 0.39426 7.58374C0.501577 7.80434 0.549274 8.00705 0.555236 8.25745C0.561198 8.71057 0.722174 9.21138 1.12163 10.0103C1.29453 10.3561 1.5509 10.8986 1.68803 11.2146C2.01594 11.9659 2.45117 12.5024 2.89236 12.7051C3.19047 12.8363 3.29182 12.8482 4.43057 12.8661C5.12217 12.878 5.86743 12.8602 6.15957 12.8184C6.92868 12.7171 7.48315 12.4309 7.73952 11.9957C7.77529 11.936 7.978 11.632 8.18667 11.322C8.38938 11.0119 8.68152 10.523 8.83057 10.2309C9.09887 9.69431 9.50429 8.57344 9.50429 8.35881C9.50429 8.29322 9.54602 8.20976 9.59968 8.16206C9.90971 7.90569 10.023 7.17236 9.80835 6.8206C9.70104 6.6477 9.70104 6.61789 9.7845 6.35556C9.93356 5.9084 9.76662 5.42547 9.37312 5.18699C9.1883 5.07371 9.17637 5.04986 9.17637 4.71599C9.17637 4.16152 8.87231 3.84553 8.25822 3.77398C7.97204 3.74417 7.96011 3.73225 7.99589 3.57724C8.03166 3.38645 7.87068 3.00488 7.70375 2.90352C7.64412 2.86179 7.59643 2.80813 7.59643 2.78428C7.59643 2.75447 7.73356 2.58157 7.89453 2.39675C8.06147 2.21192 8.49074 1.61572 8.84846 1.07317C9.3612 0.304065 9.44467 0.155013 9.23003 0.387534L8.95578 0.679674L8.8425 0.542547C8.77692 0.46504 8.72922 0.327913 8.72922 0.23252C8.72922 0.0894308 8.70537 0.0596209 8.58613 0.0596209C8.46689 0.0596209 8.34765 0.190785 7.94819 0.775067C7.42353 1.55013 7.24467 1.75284 7.36391 1.45474C7.72759 0.542546 7.87665 0.0596209 7.79318 0.0596209C7.74548 0.0596209 7.66797 0.155013 7.62028 0.268292C7.57258 0.381572 7.51296 0.476965 7.47719 0.476965C7.44738 0.476965 7.35198 0.381572 7.26255 0.268292C7.17908 0.155013 7.07177 0.0596209 7.02407 0.0596209C6.89887 0.0596209 7.04196 0.393496 7.25063 0.566396L7.42949 0.715446L7.29236 1.06125C7.22082 1.24607 7.14927 1.41301 7.14331 1.42493C7.10158 1.47859 6.8154 1.24011 6.73193 1.07913C6.61269 0.84065 6.60673 0.60813 6.72001 0.333876C6.83925 0.0655823 6.83925 0.0596209 6.7677 0.0596209C6.73789 0.0596209 6.6902 0.160975 6.66039 0.280217L6.60673 0.500813L6.48152 0.280217C6.36824 0.0894308 6.32055 0.0596209 6.13572 0.0596209H5.92705L6.08207 0.298103C6.26689 0.57832 6.32651 0.971815 6.22515 1.28184C6.14169 1.53225 5.83762 1.90786 5.71242 1.90786C5.66472 1.90786 5.307 2.0748 4.9135 2.27751L4.19805 2.64119L3.89399 2.4981C3.48261 2.30732 3.09507 1.87209 3.00564 1.49648C2.95198 1.25203 2.95198 1.16856 3.03545 0.977777C3.20239 0.572357 3.60185 0.238482 3.91784 0.238482C3.99534 0.238482 4.10862 0.196748 4.17421 0.149052C4.27556 0.0715446 4.24575 0.0655823 3.84033 0.0596209C3.44684 0.0596209 3.36933 0.077507 3.19643 0.214634ZM8.77692 0.786991C8.83654 0.846612 8.74711 0.989701 8.36553 1.45474C8.29995 1.53225 8.13301 1.16856 8.13301 0.947967C8.13301 0.828726 8.21052 0.655827 8.35361 0.46504L8.56824 0.166938L8.63979 0.441193C8.68152 0.596206 8.74114 0.751219 8.77692 0.786991ZM8.06743 1.59783C8.12705 1.71111 8.12109 1.75881 8.01973 1.9019C7.81702 2.18211 7.73952 2.22385 7.62624 2.11057C7.48911 1.97344 7.40564 1.73496 7.4593 1.64553C7.48911 1.60976 7.60239 1.44878 7.71567 1.29973L7.92434 1.03144L7.96011 1.24607C7.978 1.36531 8.0257 1.52032 8.06743 1.59783ZM7.00022 1.70515C7.00022 1.80054 6.61865 2.68293 6.57692 2.68293C6.55307 2.68293 6.56499 2.60542 6.5948 2.51599C6.6902 2.27751 6.61269 2.03902 6.41594 1.95555C6.32651 1.91382 6.24304 1.87805 6.23112 1.87209C6.21919 1.86016 6.2967 1.72303 6.39805 1.56206L6.58884 1.27588L6.79751 1.46667C6.90483 1.57398 7.00022 1.6813 7.00022 1.70515ZM7.50104 2.25962C7.59047 2.35501 7.5845 2.3729 7.42949 2.52195C7.25063 2.69485 6.9406 2.74255 6.9406 2.59946C6.9406 2.49214 7.1612 1.96748 7.25659 1.86016C7.31621 1.78862 7.3341 1.8065 7.36391 1.96152C7.38776 2.06883 7.44738 2.2 7.50104 2.25962ZM6.40402 2.11653C6.51133 2.2477 6.42787 2.57561 6.249 2.74851C6.10591 2.88564 6.05226 2.8916 5.16391 2.90948C4.57366 2.92141 4.25171 2.90948 4.28749 2.87371C4.32326 2.8439 4.69291 2.64119 5.11025 2.4206C5.90917 2.00921 6.249 1.93171 6.40402 2.11653ZM3.55415 2.60542C3.81052 2.7187 3.75686 2.80217 3.42299 2.80217C3.13681 2.80217 2.82678 2.60542 2.82678 2.4206C2.82678 2.09268 2.8864 2.06883 3.11296 2.29539C3.22624 2.40867 3.42895 2.55176 3.55415 2.60542ZM7.2864 2.97507C7.50104 3.08238 7.65605 3.29702 7.65605 3.4878C7.65605 3.52954 7.5845 3.64878 7.50104 3.75013C7.31025 3.97669 6.88098 4.11382 6.36228 4.11382C5.76011 4.11382 5.56933 4.28076 5.69453 4.71003C5.78396 5.01409 5.70049 5.12737 5.3845 5.12737C5.18179 5.12737 5.12814 5.09756 4.96716 4.871C4.75253 4.5729 4.59751 4.47751 4.32922 4.47154C4.05497 4.47154 3.81648 4.60867 3.66743 4.86504C3.47665 5.18699 3.57204 5.18699 3.86418 4.871C4.22786 4.47154 4.49616 4.50135 4.84196 4.98428C5.05659 5.27642 5.24142 5.33008 5.55144 5.18699C5.87339 5.0439 5.9509 4.93062 5.9032 4.65637C5.87936 4.50732 5.89128 4.40596 5.94494 4.37019C5.98071 4.33442 6.26689 4.29268 6.57095 4.26883C6.87502 4.24499 7.29833 4.17344 7.51892 4.10786C8.04954 3.94092 8.43112 3.97669 8.6696 4.20325C9.03925 4.55501 8.93193 5.00813 8.40727 5.30623C7.72163 5.69973 6.58884 5.84282 4.18017 5.84282C2.33789 5.84282 1.74169 5.89648 1.06201 6.13496C0.763908 6.24228 0.74006 6.24228 0.74006 6.15284C0.746022 6.02168 0.895073 5.84282 1.17529 5.63415C1.378 5.48509 1.46147 5.46125 1.83112 5.46125C2.18288 5.45528 2.29616 5.47913 2.4631 5.59241C2.76716 5.78916 3.06526 5.65799 3.06526 5.32412C3.06526 5.23469 3.11296 5.16314 3.20239 5.12737L3.33356 5.07371H3.19643C3.09507 5.06775 3.03545 5.12141 2.97583 5.27046C2.85659 5.55068 2.74331 5.57453 2.51675 5.36585C2.34982 5.21084 2.27827 5.18699 1.98017 5.18699C1.56879 5.18699 1.45551 5.07371 1.45551 4.63252C1.45551 4.12574 1.71784 3.77398 2.32001 3.46992C2.67773 3.29106 3.107 3.23144 4.28749 3.18374C5.33085 3.14797 5.84955 3.0645 6.15957 2.8916C6.36824 2.77832 6.9883 2.82005 7.2864 2.97507ZM9.3135 5.5149C9.68315 5.82493 9.66526 6.40325 9.27773 6.8206L9.05713 7.05312L9.27773 6.92791C9.52814 6.78482 9.5341 6.79079 9.59372 7.13062C9.64738 7.4645 9.52814 7.72683 9.11079 8.20379C8.80076 8.55556 8.76499 8.5794 8.6696 8.49593C8.52055 8.36477 8.41323 8.38266 8.12705 8.60921L7.86472 8.81192L7.64412 8.69268L7.42949 8.56748L7.09562 8.7523L6.75578 8.93713L6.51133 8.66883C6.38017 8.52574 6.249 8.4065 6.23112 8.4065C6.20727 8.4065 6.04033 8.51382 5.86743 8.64499C5.69453 8.77615 5.52759 8.88347 5.50971 8.88347C5.48586 8.88347 5.36662 8.81789 5.24738 8.73442C4.96716 8.54363 4.92543 8.54959 4.67502 8.76423C4.56174 8.85962 4.44846 8.93713 4.42461 8.94309C4.40076 8.94309 4.25171 8.85962 4.0967 8.76423C3.76282 8.55556 3.56011 8.53767 3.33952 8.71057L3.17258 8.84173L2.91621 8.65691L2.65984 8.47805L2.40944 8.59729L2.16499 8.72249L1.98613 8.54959C1.89074 8.46016 1.81323 8.35285 1.81323 8.31111C1.81323 8.17995 1.58667 8.1561 1.39589 8.26938C1.21702 8.37073 1.21702 8.37073 1.05605 8.21572C0.966618 8.12629 0.91296 8.03686 0.936808 8.01301C0.954694 7.98916 2.0696 7.95339 3.4051 7.92358C6.02245 7.86396 6.43979 7.83415 7.42353 7.59566C8.20456 7.41084 8.51459 7.23794 7.83491 7.37507C7.50104 7.44065 6.58884 7.47046 4.3173 7.51219C2.43925 7.53604 1.15144 7.58374 1.00835 7.62547C0.877187 7.66125 0.751984 7.69106 0.734098 7.69106C0.716212 7.69106 0.650629 7.53008 0.591008 7.33333C0.483691 6.98753 0.483691 6.96965 0.591008 6.73116C0.728136 6.43902 0.895073 6.31978 1.26472 6.24824C1.41973 6.21843 2.73735 6.17073 4.19805 6.14688C7.23871 6.08726 7.62028 6.03957 8.43112 5.61626C8.9677 5.33604 9.08098 5.31816 9.3135 5.5149ZM1.4257 8.56152C1.5986 8.44824 1.59263 8.43035 1.69399 9.00271C1.78938 9.53333 2.1173 10.5111 2.37963 11.0238C2.5883 11.4472 2.69562 11.5843 2.5883 11.2921C2.52868 11.1312 1.93247 8.80596 1.93247 8.72846C1.93247 8.70461 1.98613 8.73442 2.05171 8.79404C2.13518 8.86558 2.21865 8.88943 2.34982 8.86558L2.52868 8.82385V9.1458C2.52868 9.54526 2.66581 10.2667 2.85063 10.8509C2.98179 11.2504 2.99372 11.2683 2.96987 11.0298C2.94006 10.7257 2.82678 8.98482 2.82678 8.83577C2.82678 8.76423 2.86852 8.78211 2.99968 8.90732C3.16662 9.06829 3.17854 9.06829 3.35144 8.97886L3.52434 8.88943L3.56608 9.43794C3.60185 9.9149 3.88803 11.3577 3.93572 11.31C3.94765 11.2981 3.92976 10.7615 3.89995 10.1057C3.86418 9.45583 3.85226 8.91328 3.86418 8.89539C3.88207 8.88347 3.99534 8.95501 4.12055 9.05637C4.3948 9.28293 4.47231 9.28293 4.67502 9.09214L4.836 8.93713L4.80618 9.94472C4.79426 10.4992 4.80022 11.1133 4.82407 11.3041L4.87177 11.6558L5.00889 10.8211C5.0864 10.3621 5.16987 9.75393 5.18776 9.46179C5.22949 8.97886 5.23545 8.94905 5.33085 9.03252C5.46797 9.15772 5.64087 9.1458 5.83166 8.99675L5.98667 8.87751V9.00271C5.98667 9.38428 5.7303 11.1312 5.62299 11.477C5.46797 11.9837 5.50971 12.0493 5.67665 11.5545C5.74819 11.3458 5.89724 10.9106 6.00456 10.5827C6.11784 10.2547 6.26093 9.73604 6.31459 9.43198L6.4219 8.87751L6.55903 9.04444C6.68423 9.19946 6.70212 9.20542 6.88694 9.13984C6.99426 9.0981 7.09562 9.07425 7.10754 9.09214C7.14927 9.12791 6.66635 10.9046 6.48749 11.3696C6.21323 12.097 6.27285 12.0314 6.75578 11.0656C7.26255 10.064 7.53681 9.33659 7.53681 9.01463V8.82385L7.65605 8.94309C7.81106 9.0981 7.9303 9.09214 8.17475 8.90732C8.28207 8.82385 8.3715 8.77019 8.3715 8.78808C8.3715 8.90732 7.92434 10.0401 7.56662 10.8033C7.32814 11.322 7.14927 11.7453 7.17312 11.7453C7.25063 11.7453 7.84087 10.7973 8.06743 10.3024C8.19263 10.0282 8.3715 9.57507 8.46689 9.28293C8.59209 8.89539 8.65767 8.77019 8.72326 8.79404C8.76499 8.81192 8.85442 8.78211 8.91404 8.72846C8.97963 8.66883 9.02732 8.65691 9.02732 8.69268C9.02732 8.88347 8.53843 10.1057 8.12705 10.9523C7.87068 11.4829 7.65605 11.936 7.65605 11.9659C7.65605 12.0493 7.25659 12.2759 6.86906 12.407C6.52326 12.5263 6.38017 12.5322 5.02082 12.5263C3.49453 12.5144 2.96391 12.4488 2.47502 12.1924C2.21865 12.0612 2.14711 11.9241 1.93247 11.1491C1.83112 10.7734 1.60456 10.1534 1.4257 9.77778C1.13952 9.15772 0.918922 8.54959 0.918922 8.38266C0.918922 8.35285 0.996428 8.40054 1.09778 8.49593C1.26472 8.65691 1.27665 8.65691 1.4257 8.56152Z" fill="#5C4083"/>
</svg>
