<svg width="16" height="21" viewBox="0 0 16 21" fill="none" xmlns="http://www.w3.org/2000/svg">
<path d="M15.9091 11.0361C15.8687 10.8594 15.7556 10.6345 15.6667 10.5382C15.5213 10.3775 15.5213 10.3374 15.6183 10.1446C16.0222 9.3494 15.6425 8.25703 14.8588 7.95984C14.6569 7.88755 14.6488 7.87149 14.7296 7.56627C14.7942 7.3253 14.7861 7.15663 14.7215 6.91566C14.5276 6.28113 14.0752 5.94378 13.2269 5.82329L12.8471 5.76707L12.8471 5.36546C12.8471 5.02008 12.8068 4.93173 12.5321 4.64257L12.217 4.30522L12.7017 3.74297C12.9683 3.42972 13.6066 2.54619 14.1236 1.78313C15.3517 -0.0240957 15.3597 -0.04016 14.8508 0.506025L14.4145 0.971888L14.2287 0.771085C14.1236 0.658635 14.0428 0.465864 14.0348 0.289157C14.0186 0.024097 13.9944 5.83297e-07 13.7762 5.73762e-07C13.5823 5.65286e-07 13.5015 0.0562255 13.3561 0.305221C13.0976 0.755021 11.8615 2.49799 11.8211 2.46586C11.8049 2.4498 11.8938 2.18474 12.0069 1.87952C12.524 0.522089 12.6775 5.25734e-07 12.5563 5.20437e-07C12.4917 5.17611e-07 12.3624 0.168675 12.2735 0.385543L12.1039 0.763053L11.7646 0.377511C11.4414 0.0160647 11.2313 -0.0963851 11.2313 0.0883539C11.2313 0.240964 11.4091 0.514057 11.6918 0.811246L11.9665 1.1004L11.7565 1.61446C11.6353 1.89558 11.5222 2.14458 11.506 2.16064C11.4495 2.21687 11.0698 1.92771 10.9405 1.72691C10.69 1.3494 10.6496 0.931727 10.8274 0.522089C11.0051 0.104418 11.0213 4.53339e-07 10.9163 4.48748e-07C10.8759 4.46982e-07 10.8112 0.120482 10.787 0.265061C10.6981 0.674699 10.6577 0.682731 10.4477 0.329318C10.2619 0.0160647 10.2295 4.1873e-07 9.88214 4.03545e-07L9.50242 3.86947e-07L9.72056 0.2249C10.173 0.690764 10.2861 1.5743 9.97908 2.16868C9.79327 2.52209 9.45395 2.89157 9.30044 2.89157C9.22773 2.89157 8.88033 3.04418 8.52486 3.22892C7.42611 3.7992 6.95752 4.01606 6.82826 4.01606C6.60204 4.01606 5.89917 3.61446 5.59216 3.30924C5.03471 2.75502 4.80042 1.98394 5.03471 1.43775C5.28516 0.82731 5.89917 0.321285 6.36775 0.321285C6.50509 0.321285 6.69091 0.248996 6.79594 0.160643L6.98984 0.00803241L6.29504 2.46748e-07C5.60024 2.16378e-07 5.60024 2.16378e-07 5.24476 0.313253C4.83273 0.674699 4.47725 1.26908 4.40454 1.73494C4.36415 1.95181 4.39646 2.2008 4.51765 2.54619C4.67115 2.99598 4.67115 3.06024 4.56612 3.26908C4.3803 3.62249 4.41262 4.01606 4.65499 4.26506L4.86505 4.48193L4.23488 4.66667C3.19268 4.97189 2.48173 5.54217 2.15857 6.34538C1.98083 6.77108 1.9162 7.26104 2.00506 7.5743C2.08586 7.85542 2.07778 7.87149 1.68998 8.19277C1.27795 8.53815 0.970946 9.02008 0.970946 9.31727C0.970946 9.41366 1.0275 9.59839 1.10021 9.73494C1.2214 9.96787 1.2214 9.98394 1.01942 10.1928C0.575073 10.6506 0.534678 11.245 0.882077 11.9036C1.06789 12.249 1.10829 12.4096 1.07597 12.6667C1.00326 13.1968 1.32642 14.2329 1.97275 15.5823C2.30399 16.2651 2.77257 17.245 3.00687 17.751C3.58048 18.9398 4.04098 19.51 4.71155 19.8313C5.41442 20.1767 6.18193 20.241 8.36327 20.1606C10.2053 20.0803 10.8759 19.9759 11.4979 19.6707C11.8857 19.4779 12.4432 18.9719 12.4432 18.8193C12.4432 18.7631 12.5967 18.5221 12.7906 18.2892C13.2673 17.7028 14.0267 16.4177 14.4226 15.51C14.8184 14.6185 15.2709 13.3012 15.2709 13.0522C15.2709 12.9558 15.3517 12.8112 15.4405 12.7229C15.8122 12.3936 16.0303 11.5984 15.9091 11.0361ZM15.2143 10.2651C15.1497 10.4096 14.98 10.6104 14.8507 10.7229C14.568 10.9639 14.6407 10.988 15.0043 10.7631C15.2466 10.6185 15.2628 10.6185 15.3032 10.747C15.5455 11.5663 15.4163 11.9679 14.6811 12.7631C14.0994 13.3896 14.0994 13.3896 13.9136 13.245C13.6874 13.0683 13.4692 13.1325 13.0006 13.502C12.6694 13.759 12.4674 13.7671 12.1766 13.51C12.0473 13.3976 11.9908 13.4056 11.4656 13.6627L10.892 13.9357L10.5365 13.5502C10.3346 13.3414 10.1164 13.1727 10.0518 13.1727C9.99524 13.1727 9.72863 13.3333 9.4701 13.5341L8.99344 13.9036L8.71875 13.759C8.56525 13.6787 8.41175 13.5663 8.37943 13.5181C8.25825 13.3253 7.94316 13.4137 7.58769 13.7269L7.23221 14.0402L6.89289 13.7992C6.17385 13.3092 5.90724 13.2851 5.43058 13.6546L5.2286 13.8153L4.84081 13.5341C4.62268 13.3815 4.41262 13.253 4.37223 13.253C4.33991 13.253 4.17025 13.3414 4.00867 13.4538L3.70166 13.6627L3.44313 13.4378C3.29771 13.3092 3.13613 13.1165 3.08766 12.996C2.99071 12.7309 2.76449 12.7068 2.42517 12.9076C2.19896 13.0361 2.1828 13.0361 1.89196 12.8112L1.58495 12.5783L1.82733 12.5141C1.95659 12.4739 3.79053 12.4096 5.89917 12.3695C9.93061 12.2892 10.5365 12.241 12.0392 11.8635C12.8956 11.6386 13.4773 11.4217 13.2107 11.4137C13.1218 11.4137 12.726 11.4699 12.322 11.5422C11.7161 11.6546 10.9001 11.6787 7.35339 11.6948C4.74386 11.7028 2.89376 11.743 2.54636 11.7992C2.23936 11.8474 1.8354 11.9116 1.65767 11.9357L1.32642 11.9839L1.18908 11.5502C1.01134 10.988 1.01942 10.8273 1.20524 10.4578C1.60919 9.67872 2.02122 9.61446 6.78786 9.59036C11.199 9.56627 12.2897 9.42972 13.6954 8.70683C14.0752 8.51406 14.463 8.35341 14.5437 8.35341C14.778 8.35341 15.182 8.75502 15.3113 9.11647C15.4405 9.46988 15.4082 9.84739 15.2143 10.2651ZM14.2206 14.506C13.7843 15.7189 13.4288 16.5382 12.8471 17.6466C12.5805 18.1526 12.3624 18.6104 12.3624 18.6747C12.3624 18.8193 11.6676 19.2369 11.1344 19.4137C10.7628 19.5422 10.3911 19.5582 8.1613 19.5582C5.73758 19.5582 5.58408 19.5502 4.95392 19.3735C4.59036 19.2691 4.14601 19.0924 3.97635 18.9799C3.66935 18.7791 3.65319 18.747 3.33003 17.5904C3.11997 16.8434 2.79681 15.9518 2.44133 15.1727C1.73038 13.5984 1.49608 12.7631 1.90812 13.245C2.14241 13.5261 2.30399 13.5502 2.5706 13.3655C2.66755 13.3012 2.74834 13.2691 2.74834 13.2932C2.74834 13.5261 3.11189 15.0361 3.29771 15.5823C3.65319 16.6265 4.54996 18.5221 4.32375 17.751C4.17025 17.2289 3.32195 13.8394 3.31387 13.751C3.31387 13.6787 3.3785 13.6948 3.52393 13.8072C3.7259 13.9598 3.88748 13.9598 4.10562 13.7912C4.17833 13.7349 4.20257 13.8153 4.20257 14.1446C4.20257 14.8032 4.41262 15.9357 4.68731 16.7872L4.92968 17.5502L4.88928 16.9076C4.87313 16.5542 4.83273 15.8715 4.80849 15.3815C4.78426 14.8996 4.74386 14.3213 4.71155 14.1044L4.67115 13.7028L4.92968 13.9197C5.21245 14.1606 5.38211 14.1847 5.60832 14.0161C5.69719 13.9518 5.78606 13.8956 5.8103 13.8956C5.83453 13.8956 5.86685 14.2329 5.88301 14.6426C5.90724 15.3655 6.10114 16.5141 6.33543 17.3092L6.44854 17.7108L6.45662 17.1486C6.4647 16.8434 6.4243 15.992 6.37583 15.2771C6.32735 14.5542 6.3112 13.9438 6.33543 13.9197C6.35159 13.8956 6.54549 14.008 6.75554 14.1687C6.9656 14.3293 7.18373 14.4578 7.24029 14.4578C7.29684 14.4578 7.48266 14.3374 7.64424 14.2008L7.94316 13.9357L7.87853 14.4177C7.82198 14.8434 7.8139 18.4739 7.87045 18.5301C7.91085 18.5783 8.41175 15.3414 8.46022 14.6747L8.5087 13.9679L8.68644 14.1365C8.92073 14.3534 9.14694 14.3374 9.46203 14.0803L9.72055 13.8635L9.664 14.4578C9.5105 16.0402 9.27621 17.5261 9.09847 18.1125C8.98536 18.4578 8.90457 18.7631 8.92073 18.7791C8.93689 18.7952 9.08231 18.4337 9.23581 17.9759C9.39739 17.5181 9.63168 16.8434 9.76903 16.4659C9.90637 16.0884 10.1003 15.3494 10.2053 14.8273L10.3911 13.8635L10.5769 14.1205C10.7708 14.4016 10.9566 14.4418 11.199 14.257C11.5222 14.0161 11.5464 14.1125 11.3444 14.8835C10.8031 16.8996 10.5446 17.759 10.3346 18.2249C10.2053 18.506 10.1245 18.7631 10.1487 18.7872C10.1811 18.8112 10.2215 18.7872 10.2457 18.7229C10.2619 18.6667 10.5931 18 10.9647 17.245C11.7403 15.6867 12.217 14.3855 12.1443 14.0161L12.0958 13.7831L12.3543 13.992C12.6371 14.2329 12.7421 14.2249 13.1622 13.9116L13.4369 13.7108L13.3884 13.9679C13.2996 14.4016 12.6936 15.8795 12.0716 17.1727C11.7484 17.8394 11.5141 18.3936 11.5464 18.3936C11.6676 18.3936 12.4594 17.1807 12.8471 16.4257C13.0491 16.0161 13.3642 15.245 13.5339 14.7149C13.8247 13.8313 13.8732 13.743 14.0509 13.7349C14.164 13.7349 14.3175 13.6787 14.3983 13.5984C14.6003 13.4217 14.5922 13.4618 14.2206 14.506ZM13.8732 8.00803C13.5985 8.25703 13.3642 8.38554 12.8552 8.54619C11.5464 8.95582 10.9647 9.01205 7.11102 9.07631C3.33811 9.14056 2.918 9.18072 1.90004 9.56627C1.40721 9.751 1.3749 9.751 1.3749 9.58233C1.3749 9.42169 2.0697 8.73896 2.4171 8.55422C2.61099 8.45783 2.70794 8.4498 2.83721 8.51406C2.93416 8.57028 3.16845 8.58635 3.43506 8.55422C3.83093 8.49799 3.89556 8.51406 4.12178 8.70683C4.2672 8.81928 4.44494 8.91566 4.52573 8.91566C4.77618 8.91566 5.02663 8.64257 5.08318 8.31325C5.12358 8.07229 5.18013 7.98394 5.33363 7.93574C5.52753 7.87952 5.52753 7.87952 5.30132 7.89558C5.17205 7.90362 5.03471 7.9759 5.00239 8.05623C4.962 8.12851 4.89736 8.25703 4.86505 8.32932C4.7277 8.61044 4.54189 8.64257 4.30759 8.41767C3.94404 8.08835 3.74206 8.01607 3.32195 8.07229C2.95839 8.12048 2.918 8.11245 2.7241 7.87149C2.27975 7.3494 2.55444 6.29719 3.28963 5.74297C4.04906 5.16466 4.70347 5.03615 7.39379 4.90763C8.84802 4.83534 9.06615 4.81125 9.61553 4.61044C10.9243 4.12851 12.2816 4.49799 12.2816 5.33333C12.2816 5.66265 12.1039 5.91165 11.7322 6.09639C11.3364 6.29719 10.6173 6.4257 10.2134 6.36948C9.79327 6.31325 9.3166 6.51406 9.21157 6.78715C9.15502 6.9237 9.1631 7.1004 9.22773 7.34137C9.36508 7.84739 9.29237 7.95181 8.82378 7.95181C8.44407 7.95181 8.41175 7.93574 8.0078 7.46988C7.69271 7.11647 7.52305 6.97992 7.30492 6.93976C6.90097 6.86747 6.31928 7.1004 6.14962 7.41366C6.0769 7.5502 5.95572 7.71888 5.88301 7.80723C5.75374 7.93574 5.75374 7.95181 5.86685 7.95181C5.93956 7.95181 6.16577 7.7751 6.37583 7.5502C6.97368 6.91566 7.24029 6.98795 8.05627 7.9759C8.19361 8.14458 8.29864 8.19277 8.55717 8.19277C8.73491 8.19277 8.90457 8.16064 8.92881 8.11245C8.95305 8.07229 9.04999 8.03213 9.13078 8.03213C9.21157 8.03213 9.357 7.93574 9.45395 7.81526C9.59937 7.63052 9.61553 7.53414 9.57513 7.22892C9.53474 6.96386 9.55089 6.83534 9.63169 6.77109C9.68824 6.72289 10.0922 6.66667 10.5365 6.64257C11.3283 6.58635 12.3301 6.39358 12.4836 6.25703C12.524 6.21687 12.7421 6.18474 12.9683 6.18474C13.7439 6.18474 14.3579 6.72289 14.2691 7.3494C14.2367 7.59839 14.1479 7.75101 13.8732 8.00803ZM13.2753 2.04016C13.138 1.89558 13.0895 1.73494 13.0895 1.47791C13.0895 1.18072 13.1461 1.04418 13.4288 0.666667L13.7762 0.216868L13.8974 0.626507C13.9621 0.851406 14.059 1.08434 14.1156 1.13253C14.1883 1.20482 14.1236 1.34137 13.8328 1.73494L13.4531 2.24096L13.2753 2.04016ZM12.7744 3.05221C12.419 3.46185 12.3301 3.43775 12.0877 2.8996L11.9423 2.58635L12.322 2.12048C12.5321 1.85542 12.734 1.61446 12.7744 1.5743C12.8068 1.53414 12.8391 1.64659 12.831 1.82329C12.831 2 12.8875 2.249 12.9522 2.37751C13.0249 2.50602 13.0814 2.62651 13.0895 2.6506C13.0895 2.6747 12.9522 2.85141 12.7744 3.05221ZM12.0231 3.91165C11.8938 4.04819 11.7646 4.09639 11.4979 4.09639C11.304 4.09639 11.1505 4.08835 11.1505 4.07229C11.1505 3.99197 11.5868 2.99598 11.6514 2.91566C11.7807 2.75502 11.8777 2.79518 11.8777 2.99598C11.8777 3.09237 11.9504 3.28514 12.0312 3.41366C12.2331 3.71888 12.2331 3.69478 12.0231 3.91165ZM10.6496 4.09639C10.6173 4.09639 10.6335 3.98394 10.682 3.85542C10.7224 3.71888 10.7385 3.52611 10.7143 3.41366C10.6496 3.16466 10.3588 2.89157 10.1568 2.89157C10.0114 2.89157 10.0033 2.88353 10.1326 2.71486C10.3346 2.43374 10.585 2.05623 10.6093 1.98394C10.6173 1.94378 10.7708 2.04819 10.9324 2.2008C11.1021 2.36145 11.2717 2.48996 11.3121 2.48996C11.3525 2.48996 11.2313 2.85141 11.0455 3.29317C10.8597 3.73494 10.682 4.09639 10.6496 4.09639ZM10.3022 4.01606C10.1326 4.33735 9.92253 4.43374 9.21158 4.49799C8.46022 4.57028 6.73131 4.4739 7.03023 4.37751C7.14334 4.33735 7.57961 4.12851 7.99972 3.91165C9.40547 3.17269 9.51858 3.11647 9.83366 3.07631C10.375 3.00402 10.5931 3.45382 10.3022 4.01606ZM5.43866 4.29719C5.0751 4.24096 4.68731 3.95181 4.68731 3.71888C4.68731 3.63855 4.71155 3.49398 4.73578 3.38956C4.79234 3.20482 4.80042 3.20482 5.12358 3.5261C5.30132 3.70281 5.64064 3.92771 5.85877 4.0241L6.26272 4.2008L6.02035 4.27309C5.89109 4.31325 5.62448 4.32129 5.43866 4.29719Z" fill="#5C4083"/>
</svg>
