<svg width="16" height="22" viewBox="0 0 16 22" fill="none" xmlns="http://www.w3.org/2000/svg">
<path d="M15.6981 12.8979C15.6981 12.8979 15.5256 12.7042 15.655 12.5106C16.0863 11.7747 15.655 10.7289 14.8787 10.4577C14.6631 10.3803 14.6631 10.3803 14.7493 10.0704C14.8356 9.83803 14.7925 9.6831 14.7493 9.45071C14.5337 8.86972 14.0593 8.52113 13.1968 8.40493H12.8086V7.97888C12.8086 7.66902 12.8086 7.55282 12.4636 7.28169L12.1186 6.97183L12.6361 6.42958C12.8949 6.11972 13.5849 5.30634 14.1024 4.57043C14.5337 3.95071 15.4394 3.09859 15.6119 2.67254C15.6119 2.40141 15.4394 2.20775 15.2237 1.93662C14.965 1.62676 14.7925 1.4331 14.6199 1.51057C14.4906 1.51057 13.6712 2.78874 13.283 3.17606C12.8949 3.52465 11.7305 5.22888 11.6873 5.22888C11.6873 5.22888 11.8167 4.95775 11.8598 4.68662C12.1186 3.48592 13.4987 1.16197 13.5849 1.04578C13.7574 0.77465 12.248 -0.19366 12.1186 2.39995e-06C11.6873 0.580988 11.3854 1.27817 11.3854 1.27817C11.3854 1.27817 10.6092 3.05986 10.566 3.17606C10.4798 3.56338 10.4367 3.56338 10.221 3.25352C10.1348 3.13733 10.0485 3.05986 10.0054 3.02113C9.74663 2.71127 9.01348 2.44014 8.75472 2.40141C7.97844 2.32395 7.50404 2.40141 7.1159 2.55634C6.85714 2.67254 6.68464 2.75 6.51213 2.82747C6.33962 2.44014 5.8221 1.12324 5.73585 1.16197C5.69272 1.16197 5.43396 1.27817 5.39083 1.35564C5.26145 1.51057 6.12399 2.90493 6.33962 2.90493C6.2965 2.90493 5.99461 2.90493 5.86523 2.90493C5.13207 2.94366 5.13207 3.02113 4.78706 3.21479C4.26954 3.44719 3.96765 4.10564 3.92453 4.57043C3.92453 4.76409 3.92453 4.99648 4.05391 5.34507C4.22641 5.77113 4.22641 5.84859 4.09703 6.04226C3.92453 6.39085 3.92453 6.73944 4.18329 6.97183L4.39892 7.1655L3.75202 7.35916C2.67385 7.63028 1.9407 8.17254 1.59569 8.94719C1.42318 9.33451 1.33693 9.7993 1.42318 10.1092C1.50943 10.3803 1.50943 10.3803 1.07817 10.6901C0.6469 11 0.345013 11.4648 0.345013 11.7359C0.345013 11.8134 0.38814 12.007 0.474393 12.1232C0.603773 12.3556 0.603773 12.3556 0.38814 12.5493C-0.0862537 12.9754 -0.12938 13.5563 0.25876 14.1761C0.474393 14.4859 0.474393 14.6408 0.474393 14.912C0.38814 15.4155 0.733153 16.3838 1.42318 17.662C1.76819 18.3204 2.24259 19.25 2.50135 19.7148C3.10512 20.838 3.57951 21.3803 4.26954 21.6901C5.00269 22 5.8221 22.0775 8.06469 22C10.0054 21.9225 10.6954 21.8063 11.3423 21.5352C11.7305 21.3416 12.3342 20.8768 12.3342 20.7218C12.3342 20.6831 12.5067 20.4507 12.6792 20.2183C13.1968 19.6761 13.973 18.4366 14.4043 17.5845C14.8356 16.7324 15.31 15.493 15.31 15.2606C15.31 15.1831 15.3962 15.0282 15.4825 14.9507C15.8706 14.6408 16.0863 13.9049 15.9569 13.3627C15.9569 13.2077 15.7844 12.9754 15.6981 12.8979ZM14.5337 2.01409C14.5337 2.01409 14.5337 2.28521 14.7062 2.51761C14.8787 2.75 15.2237 2.94366 15.2237 2.94366C15.2237 3.02113 15.1375 3.09859 15.0943 3.13733L14.965 3.25352C14.965 3.25352 14.8356 3.36972 14.7925 3.40845L14.3181 3.83451L14.1024 3.64085C14.1024 3.64085 13.8868 3.36972 13.8868 3.17606C13.8868 3.05986 13.8868 2.94366 13.8437 2.90493C14.2318 2.05282 14.4043 1.97535 14.4474 1.97535L14.5337 2.01409ZM13.3261 3.56338L13.6712 3.13733L13.8005 3.52465C13.8868 3.71831 13.973 3.95071 14.0162 3.98944C14.1024 4.0669 14.0162 4.1831 13.7143 4.57043L13.3261 5.03521L13.1536 4.84155C13.1536 4.84155 12.938 4.57043 12.938 4.2993C12.938 4.02817 12.9811 3.87324 13.283 3.52465L13.3261 3.56338ZM12.1617 4.91902C12.3774 4.68662 12.593 4.45423 12.6361 4.4155C12.6361 4.4155 12.7224 4.49296 12.6792 4.64789C12.6792 4.80282 12.7224 5.03521 12.8086 5.19014C12.8949 5.30634 12.938 5.42254 12.938 5.46127C12.938 5.46127 12.8086 5.65493 12.593 5.84859C12.2049 6.23592 12.1186 6.19719 11.8598 5.69366L11.6873 5.38381L12.0755 4.95775L12.1617 4.91902ZM11.6873 5.7324C11.6873 5.7324 11.7736 6.00352 11.8598 6.11972C12.0755 6.39085 12.0755 6.39085 11.8598 6.58451C11.7305 6.70071 11.6011 6.77817 11.2992 6.77817C11.0836 6.77817 10.9542 6.77817 10.9542 6.77817C10.9542 6.70071 11.4286 5.77113 11.4717 5.69366C11.6011 5.53874 11.6873 5.57747 11.6873 5.77113V5.7324ZM12.1186 0.193664C12.248 0.542256 12.9811 1.20071 13.2399 1.20071C13.3261 1.20071 12.6361 2.36268 12.593 2.44014C12.5499 2.47888 11.8598 1.3169 11.8167 0.92958C11.8167 0.697186 12.1186 0.193664 12.1186 0.193664ZM11.558 1.35564C11.558 1.35564 12.0755 2.44014 12.4636 2.71127C12.5499 2.75 12.2911 3.09859 12.2049 3.25352C12.2049 3.25352 12.0323 3.56338 11.9461 3.67958L11.6011 3.33099C11.4717 3.17606 11.0404 2.67254 11.1698 2.16902C11.2129 1.97535 11.558 1.4331 11.558 1.39437V1.35564ZM10.6092 3.40845C10.6092 3.40845 10.7385 3.09859 10.7817 3.02113C10.7817 3.02113 10.8679 2.71127 10.9542 2.67254C10.9973 2.67254 11.2561 3.40845 11.558 3.67958L11.8598 3.95071L11.6442 4.45423C11.5148 4.72535 11.3854 4.95775 11.3854 4.95775C11.3423 4.99648 10.9111 4.72535 10.7817 4.53169C10.5229 4.1831 10.4798 3.79578 10.6523 3.40845H10.6092ZM10.3935 4.80282C10.3935 4.80282 10.566 4.88028 10.7385 4.99648C10.9111 5.15141 11.0836 5.26761 11.1267 5.26761C11.1698 5.26761 11.0404 5.6162 10.8679 6.04226C10.6954 6.46831 10.4798 6.8169 10.4367 6.8169C10.3935 6.8169 10.4367 6.70071 10.4367 6.58451C10.4367 6.46831 10.4798 6.27465 10.4367 6.15845C10.3504 5.92606 10.0485 5.65493 9.83288 5.65493C9.66038 5.65493 9.66038 5.65493 9.83288 5.5C10.0485 5.22888 10.3073 4.88028 10.3504 4.80282H10.3935ZM10.0916 6.73944C9.91914 7.0493 9.7035 7.12676 8.97035 7.20423C8.19407 7.28169 6.38275 7.20423 6.68464 7.08803C6.81402 7.08803 7.24528 6.85564 7.67655 6.66197C9.14286 5.96479 9.27224 5.92606 9.57412 5.88733C10.1348 5.80986 10.3504 6.23592 10.0485 6.77817L10.0916 6.73944ZM4.57143 4.2993C4.83019 3.71831 5.47709 3.21479 5.99461 3.21479C6.12399 3.21479 6.33962 3.21479 6.469 3.17606L6.81402 2.94366C7.20216 2.71127 8.19407 2.55634 8.79784 2.71127C9.40162 2.8662 10.3504 4.26057 9.74663 4.99648C9.48787 5.30634 9.18598 5.69366 9.0566 5.69366C8.97035 5.69366 8.62534 5.84859 8.2372 6.00352C7.07278 6.54578 6.59838 6.73944 6.469 6.73944C6.25337 6.73944 5.47709 6.35212 5.1752 6.08099C4.57143 5.53874 4.35579 4.84155 4.57143 4.2993ZM4.22641 6.46831C4.22641 6.46831 4.22641 6.27465 4.26954 6.15845C4.31267 5.96479 4.35579 5.96479 4.65768 6.27465C4.83019 6.42958 5.21833 6.66197 5.43396 6.73944L5.86523 6.89437L5.60647 6.97183C5.60647 6.97183 5.1752 7.01057 5.00269 6.97183C4.61455 6.9331 4.22641 6.66197 4.22641 6.42958V6.46831ZM1.85445 11.0387C1.85445 11.0387 2.15633 10.9225 2.28571 11.0387C2.37197 11.0775 2.63073 11.1162 2.88949 11.0387C3.32075 11 3.36388 11.0387 3.62264 11.1937C3.79515 11.3099 3.96765 11.3873 4.05391 11.3873C4.31267 11.3873 4.57143 11.1162 4.65768 10.8063C4.65768 10.5739 4.74393 10.4965 4.91644 10.4577C4.91644 10.4577 4.65768 10.5352 4.61455 10.6127C4.61455 10.6901 4.48517 10.8063 4.48517 10.8838C4.35579 11.1549 4.14016 11.1937 3.8814 10.9613C3.49326 10.6514 3.27763 10.5739 2.84636 10.6514C2.45822 10.6901 2.41509 10.6514 2.24259 10.4577C1.76819 9.95423 2.07008 8.98592 2.84636 8.44366C3.62264 7.90141 4.31267 7.78521 7.1159 7.66902C8.62534 7.59155 8.8841 7.59155 9.44474 7.39789C10.8248 6.9331 12.248 7.28169 12.248 8.09507C12.248 8.40493 12.0755 8.63733 11.6873 8.83099C11.2561 9.02465 10.5229 9.14085 10.0916 9.10212C9.66038 9.06338 9.14286 9.25705 9.0566 9.48944C9.01348 9.60564 9.01348 9.7993 9.0566 10.0317C9.18598 10.4965 9.14286 10.6127 8.62534 10.6127C8.2372 10.6127 8.19407 10.6127 7.7628 10.1479C7.41779 9.7993 7.24528 9.6831 7.02965 9.64437C6.59838 9.5669 5.99461 9.7993 5.8221 10.1092C5.73585 10.2254 5.60647 10.3803 5.56334 10.4965C5.43396 10.6127 5.43396 10.6514 5.56334 10.6514C5.64959 10.6514 5.86523 10.4965 6.08086 10.2641C6.68464 9.6831 6.98652 9.72183 7.84906 10.6514C7.97844 10.8063 8.10782 10.8451 8.36658 10.8451C8.53908 10.8451 8.71159 10.8451 8.75472 10.7676C8.75472 10.7676 8.8841 10.6901 8.97035 10.6901C9.0566 10.6901 9.18598 10.6127 9.31536 10.4965C9.48787 10.3028 9.48787 10.2254 9.44474 9.95423C9.44474 9.72183 9.44474 9.5669 9.48787 9.52817C9.531 9.48944 9.96226 9.41197 10.4367 9.41197C11.2561 9.37324 12.2911 9.17958 12.4636 9.06338C12.4636 9.06338 12.7224 8.98592 12.9811 8.98592C13.8005 8.98592 14.4474 9.48944 14.3612 10.0704C14.3612 10.3028 14.2318 10.4577 13.9299 10.6901C13.628 10.9225 13.4124 11.0387 12.8518 11.1937C11.4717 11.581 10.8679 11.6197 6.85714 11.6972C2.93261 11.7747 2.45822 11.8134 1.42318 12.162C0.90566 12.3556 0.862533 12.3556 0.862533 12.162C0.862533 11.9683 1.59569 11.3486 1.9407 11.1937L1.85445 11.0387ZM14.1887 16.6549C13.7143 17.8169 13.3693 18.5916 12.7655 19.6373C12.5067 20.1021 12.248 20.5282 12.248 20.6056C12.248 20.7606 11.5148 21.1479 10.9542 21.3028C10.566 21.419 10.1779 21.4578 7.84906 21.4578C5.30458 21.4578 5.1752 21.4578 4.48517 21.3028C4.09703 21.1866 3.62264 21.0317 3.45013 20.9155C3.14825 20.7218 3.10512 20.6831 2.76011 19.5986C2.54447 18.9014 2.19946 18.0493 1.81132 17.3134C1.07817 15.8416 0.819407 15.0282 1.25067 15.493C1.50943 15.7641 1.68194 15.7641 1.9407 15.6092C2.02695 15.5317 2.11321 15.5317 2.11321 15.5317C2.11321 15.7641 2.50135 17.1585 2.67385 17.7007C3.06199 18.669 3.96765 20.4894 3.75202 19.7535C3.57951 19.25 2.71698 16.0739 2.71698 15.9965C2.71698 15.919 2.80323 15.9577 2.93261 16.0352C3.14825 16.1901 3.32075 16.1901 3.53639 16.0352C3.62264 15.9965 3.62264 16.0352 3.62264 16.3838C3.62264 17.0035 3.83827 18.088 4.14016 18.8627L4.39892 19.5986V18.9789C4.35579 18.6303 4.31267 18.0106 4.26954 17.5458C4.26954 17.081 4.18329 16.5387 4.18329 16.3451V15.9577L4.39892 16.1514C4.70081 16.3838 4.87331 16.3838 5.08895 16.2289C5.1752 16.1514 5.26145 16.1127 5.30458 16.1127C5.34771 16.1127 5.34771 16.4225 5.39083 16.8099C5.39083 17.507 5.60647 18.5916 5.86523 19.3275L5.99461 19.7148V19.1725C5.99461 18.9014 5.99461 18.088 5.90836 17.3908C5.86523 16.6937 5.8221 16.1514 5.90836 16.1127C5.90836 16.1127 6.12399 16.1901 6.33962 16.3451C6.55526 16.5 6.77089 16.6162 6.85714 16.6162C6.9434 16.6162 7.1159 16.5 7.28841 16.3838L7.5903 16.1514L7.50404 16.6162C7.46092 17.0035 7.41779 20.4507 7.50404 20.4894C7.50404 20.5282 8.06469 17.4683 8.10782 16.8486V16.1901L8.32345 16.3451C8.58221 16.5387 8.79784 16.5387 9.14286 16.3063L9.40162 16.1127V16.6549C9.18598 18.1655 8.92722 19.5599 8.75472 20.1021C8.62534 20.412 8.53908 20.7218 8.58221 20.7218C8.62534 20.7218 8.75472 20.412 8.92722 19.9472C9.09973 19.5211 9.35849 18.8627 9.48787 18.5141C9.61725 18.1655 9.83288 17.4683 9.96226 16.9648L10.1348 16.0739L10.3504 16.3063C10.566 16.5775 10.7385 16.6162 10.9973 16.4225C11.3423 16.1901 11.3423 16.2676 11.1698 17.0035C10.6092 18.9014 10.3504 19.7148 10.1348 20.1408C10.0054 20.412 9.91914 20.6444 9.91914 20.6831C9.91914 20.6831 10.0054 20.6831 10.0054 20.6056C10.0054 20.5669 10.3504 19.9085 10.7385 19.2113C11.558 17.7394 12.0323 16.5 11.9892 16.1514V15.919L12.2049 16.1127C12.5067 16.3451 12.593 16.3451 13.0674 16.0352L13.3693 15.8416V16.0739C13.2399 16.5 12.593 17.8944 11.9461 19.0951C11.6011 19.7148 11.3423 20.257 11.3854 20.257C11.5148 20.257 12.3342 19.0951 12.7655 18.3979C12.9811 18.0106 13.3261 17.2747 13.4987 16.7711C13.8005 15.919 13.8437 15.8416 14.0593 15.8416C14.1887 15.8416 14.3181 15.8028 14.4043 15.7254C14.6199 15.5704 14.6199 15.6092 14.2318 16.5775L14.1887 16.6549ZM15.0081 13.1303C15.2668 12.9754 15.2668 12.9754 15.31 13.1303C15.5687 13.9049 15.4394 14.2923 14.6631 15.0282C14.2606 15.4155 13.9874 15.5704 13.8437 15.493C13.628 15.338 13.3693 15.3768 12.8949 15.7254C12.5499 15.9577 12.3342 15.9577 12.0323 15.7254C11.903 15.6092 11.8167 15.6092 11.2992 15.8803L10.6954 16.1514L10.3073 15.8028C10.0916 15.6092 9.87601 15.4542 9.78976 15.4542C9.74663 15.4542 9.44474 15.6092 9.18598 15.8028L8.66846 16.1514L8.36658 15.9965C8.36658 15.9965 8.06469 15.8028 8.02156 15.7641C7.89218 15.5704 7.54717 15.6479 7.20216 15.9577L6.81402 16.2676L6.469 16.0352C5.73585 15.5704 5.43396 15.5317 4.95957 15.8803L4.74393 16.0352L4.35579 15.7641C4.14016 15.6092 3.92453 15.493 3.8814 15.493C3.8814 15.493 3.66577 15.5704 3.49326 15.6866L3.19137 15.8803L2.93261 15.6866C2.93261 15.6866 2.63073 15.3768 2.54447 15.2606C2.45822 15.0282 2.19946 14.9894 1.85445 15.1831C1.63881 15.2993 1.59569 15.2993 1.2938 15.1056L0.991913 14.8732L1.25067 14.7958C1.25067 14.7958 3.32075 14.6796 5.52021 14.6408C9.74663 14.5634 10.3504 14.5247 11.9461 14.1761C12.8518 13.9824 13.4555 13.75 13.1536 13.75C13.0674 13.75 12.6361 13.7887 12.2049 13.8662C11.558 13.9824 10.7385 13.9824 7.02965 14.0211C4.31267 14.0211 2.37197 14.0599 2.02695 14.1373C1.72507 14.1761 1.2938 14.2535 1.07817 14.2535H0.733153L0.603773 13.9049C0.431266 13.3627 0.431266 13.2077 0.603773 12.8592C1.03504 12.1232 1.46631 12.0458 6.42588 12.0458C11.0404 12.0458 12.1617 11.8908 13.628 11.1937C14.0162 11 14.4474 10.8451 14.5337 10.8451C14.7925 10.8451 15.1806 11.2324 15.3531 11.581C15.4825 11.9296 15.4394 12.2782 15.2668 12.6655C15.1806 12.8204 15.0081 12.9754 14.8787 13.0916C14.5768 13.3239 14.6631 13.3239 15.0512 13.0916L15.0081 13.1303Z" />
</svg>
