<svg width="46" height="45" viewBox="0 0 46 45"  xmlns="http://www.w3.org/2000/svg">
<path fill-rule="evenodd" clip-rule="evenodd" d="M8.88001 43.2513C18.27 44.2531 27.74 44.2531 37.13 43.2513C38.9532 43.0562 40.6544 42.2421 41.9501 40.9446C43.2457 39.6472 44.0575 37.9448 44.25 36.1213C45.2518 26.7313 45.2518 17.2614 44.25 7.87134C44.0549 6.04816 43.2407 4.34694 41.9433 3.0513C40.6458 1.75567 38.9435 0.943903 37.12 0.751344C27.73 -0.250453 18.26 -0.250453 8.87001 0.751344C7.04683 0.946462 5.34561 1.76062 4.04997 3.05807C2.75434 4.35553 1.94257 6.05789 1.75001 7.88134C0.748216 17.2714 0.748216 26.7413 1.75001 36.1313C1.94513 37.9545 2.75928 39.6557 4.05674 40.9514C5.3542 42.247 7.05656 43.0588 8.88001 43.2513ZM13.4777 33.1812C15.1233 34.8268 17.3552 35.7513 19.6825 35.7513C22.0079 35.7474 24.2368 34.8214 25.8803 33.1764C27.5239 31.5314 28.448 29.3017 28.45 26.9763V17.9163C29.8076 18.7363 31.364 19.1686 32.95 19.1663H35.1075V14.8913H32.965C31.7715 14.8913 30.6269 14.4172 29.783 13.5733C28.9391 12.7294 28.465 11.5848 28.465 10.3913V8.25134H24.1825V26.9838C24.1825 27.8739 23.9186 28.7439 23.4241 29.4839C22.9297 30.2239 22.2269 30.8007 21.4046 31.1413C20.5823 31.4819 19.6775 31.571 18.8046 31.3974C17.9317 31.2237 17.1299 30.7952 16.5005 30.1658C15.8712 29.5365 15.4426 28.7347 15.269 27.8618C15.0953 26.9888 15.1845 26.084 15.5251 25.2618C15.8657 24.4395 16.4424 23.7367 17.1824 23.2422C17.9225 22.7478 18.7925 22.4838 19.6825 22.4838H21.825V18.2013H19.6825C17.3552 18.2013 15.1233 19.1259 13.4777 20.7715C11.832 22.4171 10.9075 24.6491 10.9075 26.9763C10.9075 29.3036 11.832 31.5356 13.4777 33.1812Z" />
</svg>
